Coordinates
version=1
nRows=22
nColumns=24
inDegrees=yes

Units are S.I. units (second, meters, Newtons, ...)
Angles are in degrees.

endheader
time	pelvis_tilt	pelvis_list	pelvis_rotation	pelvis_tx	pelvis_ty	pelvis_tz	hip_flexion_r	hip_adduction_r	hip_rotation_r	knee_angle_r	ankle_angle_r	subtalar_angle_r	mtp_angle_r	hip_flexion_l	hip_adduction_l	hip_rotation_l	knee_angle_l	ankle_angle_l	subtalar_angle_l	mtp_angle_l	lumbar_extension	lumbar_bending	lumbar_rotation
      3.83000000	     -6.03257534	     -2.73801093	     -5.68943522	     -0.91179760	     -0.03814986	     -0.16149458	     -8.76892011	      7.25272625	      7.37712498	    -25.38122370	      1.45984122	     17.29594239	     23.03819234	     37.46940279	     -2.62344120	    -15.17876027	    -16.63936598	      8.07029405	     14.84862851	    -14.41697060	      5.24153653	      3.33680506	      7.77314645
      3.83500000	     -6.09467100	     -2.41876817	     -5.70473361	     -0.90370316	     -0.03870873	     -0.16204997	     -8.62308492	      6.67754592	      6.88014415	    -26.30076635	      0.42935011	     18.39050039	     23.85794454	     37.38120202	     -2.23774891	    -15.21315848	    -17.22327557	      7.39209911	     13.99329847	    -14.39929165	      5.53698455	      3.00025738	      7.70002606
      3.84000000	     -6.10259195	     -2.04151599	     -5.59657306	     -0.89543824	     -0.03909415	     -0.16276399	     -8.54791265	      6.02450009	      6.22527818	    -27.06634706	     -1.12466063	     19.16845643	     25.58096234	     37.16936218	     -1.66933534	    -14.91833017	    -17.61878623	      6.32083056	     12.86442976	    -13.89595733	      5.81197147	      2.58349773	      7.56101133
      3.84500000	     -6.16032901	     -1.61251780	     -5.52554412	     -0.88725426	     -0.03949285	     -0.16345588	     -8.32154235	      5.30040316	      5.60231343	    -27.96980088	     -2.67541508	     20.13621478	     27.24410163	     37.04117210	     -1.08889594	    -14.73917633	    -18.03893897	      5.12089009	     11.77579656	    -13.23952417	      6.12426984	      2.11830516	      7.42599947
      3.85000000	     -6.30700935	     -1.07350615	     -5.52751121	     -0.87902289	     -0.03989775	     -0.16402695	     -7.90399644	      4.45532549	      5.11719388	    -29.06776585	     -4.06271664	     21.41584092	     28.20620194	     37.03150234	     -0.48415383	    -14.78685739	    -18.53399018	      4.06061206	     10.94332261	    -13.14664658	      6.55428569	      1.54527138	      7.36454869
      3.85500000	     -6.26830612	     -0.59944705	     -5.33402959	     -0.87090853	     -0.04007004	     -0.16493032	     -7.70866323	      3.64907352	      4.36725307	    -29.89599756	     -6.31329531	     22.02849132	     30.86956212	     36.81384442	      0.27611950	    -14.25101138	    -18.88025537	      2.52717440	      9.52362890	    -12.18672801	      6.73855943	      1.00229232	      7.06198355
      3.86000000	     -6.40661435	     -0.05127064	     -5.21439179	     -0.86273718	     -0.04039445	     -0.16576370	     -7.19639488	      2.74748054	      3.68044239	    -31.03027600	     -8.22883515	     23.18306033	     32.22399352	     36.81056115	      1.03608988	    -13.77655170	    -19.33579684	      1.28976705	      8.36345981	    -11.95308774	      7.14042920	      0.42237694	      6.93740917
      3.86500000	     -6.51843749	      0.51931698	     -5.07915981	     -0.85461588	     -0.04065311	     -0.16661109	     -6.66847000	      1.81422013	      3.04026468	    -32.17268173	    -10.37655906	     24.20034401	     33.74165555	     36.80741534	      1.83177810	    -13.28696070	    -19.85361520	      0.13980568	      7.22971613	    -11.97583770	      7.49994706	     -0.19603440	      6.75790138
      3.87000000	     -6.68185919	      1.08747268	     -4.98533096	     -0.84663953	     -0.04097083	     -0.16745540	     -5.98342237	      0.87230994	      2.49716069	    -33.47793242	    -12.49514272	     25.35934472	     34.75708843	     36.90366507	      2.59765471	    -12.81630792	    -20.46925242	     -0.85204329	      6.14055061	    -12.29707061	      7.88323561	     -0.78672727	      6.65197658
      3.87500000	     -6.78958702	      1.68022017	     -4.79615634	     -0.83848821	     -0.04120062	     -0.16833309	     -5.39107198	     -0.08709215	      1.90436758	    -34.65413786	    -15.03522715	     26.06457394	     36.20162699	     36.91174073	      3.45749483	    -12.22892621	    -21.07680019	     -1.65020921	      5.13039045	    -12.81549217	      8.23875833	     -1.44727040	      6.40576570
      3.88000000	     -6.99709217	      2.26571279	     -4.70875633	     -0.83053217	     -0.04155546	     -0.16913802	     -4.55238483	     -1.02780952	      1.52847502	    -36.10527316	    -17.31954224	     26.95214313	     36.49810787	     37.04313201	      4.24181094	    -11.72510435	    -21.71419298	     -2.35000251	      4.09766595	    -13.30064989	      8.66859045	     -2.05693554	      6.32290377
      3.88500000	     -7.15435735	      2.82497377	     -4.53653500	     -0.82264264	     -0.04189272	     -0.17005974	     -3.74807844	     -1.94384703	      1.08088484	    -37.56046161	    -19.74291693	     27.57654373	     36.70601953	     37.11656422	      5.06662872	    -11.12988827	    -22.35642566	     -2.90523240	      3.09228969	    -13.85833319	      9.01858549	     -2.65736105	      6.14618199
      3.89000000	     -7.29553154	      3.38427695	     -4.36085220	     -0.81482103	     -0.04222518	     -0.17095730	     -2.91372562	     -2.84862167	      0.68528522	    -39.07742693	    -22.18102204	     27.97300989	     36.61050371	     37.15404675	      5.88222352	    -10.61878588	    -22.98418067	     -3.28517687	      2.20566735	    -14.38918770	      9.33593808	     -3.26451866	      5.97400140
      3.89500000	     -7.39342643	      3.98919132	     -4.20957455	     -0.80697972	     -0.04251022	     -0.17174394	     -2.07882731	     -3.79049905	      0.33348894	    -40.66827013	    -24.56632513	     28.04827578	     36.11194693	     37.10175480	      6.69627194	    -10.32984957	    -23.55425897	     -3.49150232	      1.53410810	    -14.68159304	      9.61675906	     -3.93235175	      5.80045767
      3.90000000	     -7.54898702	      4.48639575	     -3.94852081	     -0.79940492	     -0.04287644	     -0.17286608	     -1.14319399	     -4.61882969	     -0.04193170	    -42.32002231	    -26.87828247	     28.08761235	     35.28284875	     37.10703809	      7.52476574	     -9.74340327	    -24.10673691	     -3.70212814	      0.63290172	    -15.14444865	      9.88648373	     -4.46308726	      5.56816717
      3.90500000	     -7.62034191	      5.09848045	     -3.74806583	     -0.79173560	     -0.04312093	     -0.17374060	     -0.25587765	     -5.55735067	     -0.36771394	    -44.02093756	    -29.09055825	     27.68526762	     34.28458967	     36.94543309	      8.37239542	     -9.54499826	    -24.54040367	     -3.71091186	      0.08605623	    -15.30791600	     10.09832099	     -5.14784681	      5.35105957
      3.91000000	     -7.75420151	      5.55511432	     -3.42689168	     -0.78439322	     -0.04342309	     -0.17495147	      0.74668477	     -6.32590426	     -0.75586453	    -45.83321731	    -31.05459003	     27.17597719	     32.42558872	     36.85342824	      9.18997610	     -9.04258064	    -24.97628913	     -3.74944106	     -0.65331211	    -15.54149874	     10.29274632	     -5.64223565	      5.06341527
      3.91500000	     -7.82095919	      6.10969970	     -3.15996880	     -0.77699494	     -0.04359370	     -0.17596969	      1.71793872	     -7.18680586	     -1.06953203	    -47.68732328	    -32.75943104	     26.37376821	     30.41850225	     36.60557310	     10.03104137	     -8.82613571	    -25.26835399	     -3.65251361	     -1.12221974	    -15.53718325	     10.43890966	     -6.26718408	      4.77829319
      3.92000000	     -7.89471869	      6.67964987	     -2.81717377	     -0.76970316	     -0.04378460	     -0.17708034	      2.72246956	     -8.07673983	     -1.44695159	    -49.63170130	    -33.93695074	     25.51633443	     27.98671023	     36.33820736	     10.91594882	     -8.63087337	    -25.50698792	     -3.55318674	     -1.46042304	    -15.26390354	     10.56443803	     -6.91920789	      4.41646566
      3.92500000	     -7.92439705	      7.21528101	     -2.50854193	     -0.76252908	     -0.04383221	     -0.17818092	      3.70807178	     -8.91427054	     -1.75124365	    -51.50717670	    -35.04989819	     24.33962627	     25.94992782	     35.96390343	     11.76203476	     -8.45111440	    -25.63750155	     -3.44894183	     -1.83586033	    -14.85276019	     10.62707259	     -7.52109964	      4.10979463
      3.93000000	     -7.94430225	      7.72542936	     -2.18897074	     -0.75545617	     -0.04379805	     -0.17928325	      4.70173780	     -9.71032943	     -2.02735114	    -53.35445796	    -35.83888053	     23.02698755	     24.05636849	     35.53682672	     12.58796025	     -8.26722447	    -25.70012460	     -3.32038475	     -2.16477753	    -14.35986193	     10.65900581	     -8.09744328	      3.78775362
      3.93500000	     -7.95095821	      8.21269407	     -1.87467270	     -0.74848772	     -0.04367366	     -0.18034876	      5.70464685	    -10.45894781	     -2.25075014	    -55.16917248	    -36.26171878	     21.63595902	     22.37709518	     35.05654337	     13.38376819	     -8.09224496	    -25.70042443	     -3.15574955	     -2.44150751	    -13.82524243	     10.65922975	     -8.65045821	      3.46599350
